<svg id="Group_1629" data-name="Group 1629" xmlns="http://www.w3.org/2000/svg" width="24" height="17.263" viewBox="0 0 24 17.263">
  <path id="videocamerathree" d="M23.086,15.4,18,10.411v3.4a3.6,3.6,0,0,1-.879,2.441A2.711,2.711,0,0,1,15,17.263H3A2.716,2.716,0,0,1,.879,16.252,3.591,3.591,0,0,1,0,13.81V3.453A3.6,3.6,0,0,1,.879,1.011,2.711,2.711,0,0,1,3,0H15a2.716,2.716,0,0,1,2.121,1.011A3.591,3.591,0,0,1,18,3.453v3.4l5.086-4.99q.375-.351.914.189V15.213q-.539.539-.914.189ZM13.512,3.453a1.382,1.382,0,0,0-1.067.5A1.758,1.758,0,0,0,12,5.165a1.809,1.809,0,0,0,.445,1.228,1.368,1.368,0,0,0,1.067.513,1.333,1.333,0,0,0,1.055-.513A1.839,1.839,0,0,0,15,5.165a1.786,1.786,0,0,0-.433-1.214,1.347,1.347,0,0,0-1.055-.5Z" transform="translate(0 0)" fill="#fff"/>
</svg>
