<svg xmlns="http://www.w3.org/2000/svg" width="29.834" height="24" viewBox="0 0 29.834 24">
  <path id="drivers-license-o" d="M13.053,16.938a2.338,2.338,0,0,1-.459,1.461,1.349,1.349,0,0,1-1.1.6H5.288a1.351,1.351,0,0,1-1.1-.6,2.337,2.337,0,0,1-.459-1.46,10.576,10.576,0,0,1,.109-1.571A7.229,7.229,0,0,1,4.2,13.961a2.354,2.354,0,0,1,.743-1.07,1.841,1.841,0,0,1,1.18-.39,3.082,3.082,0,0,0,4.545,0,1.85,1.85,0,0,1,1.18.39,2.339,2.339,0,0,1,.743,1.07,7.332,7.332,0,0,1,.357,1.406A10.418,10.418,0,0,1,13.053,16.938ZM11.188,10a3.005,3.005,0,0,1-.815,2.125,2.682,2.682,0,0,1-3.963,0A3,3,0,0,1,5.594,10a3,3,0,0,1,.815-2.125,2.682,2.682,0,0,1,3.963,0A3.005,3.005,0,0,1,11.188,10Zm14.917,6.5v1a.506.506,0,0,1-.131.359.438.438,0,0,1-.335.14H15.384a.437.437,0,0,1-.335-.14.506.506,0,0,1-.131-.359v-1a.506.506,0,0,1,.131-.359.437.437,0,0,1,.335-.14H25.639a.437.437,0,0,1,.335.14A.506.506,0,0,1,26.105,16.5Zm-5.594-4v1a.506.506,0,0,1-.131.359.437.437,0,0,1-.335.14H15.384a.437.437,0,0,1-.335-.14.506.506,0,0,1-.131-.359v-1a.506.506,0,0,1,.131-.359.437.437,0,0,1,.335-.14h4.662a.437.437,0,0,1,.335.14A.506.506,0,0,1,20.511,12.5Zm5.594,0v1a.506.506,0,0,1-.131.359.437.437,0,0,1-.335.14h-2.8a.437.437,0,0,1-.335-.14.506.506,0,0,1-.131-.359v-1a.506.506,0,0,1,.131-.359.437.437,0,0,1,.335-.14h2.8a.437.437,0,0,1,.335.14A.506.506,0,0,1,26.105,12.5Zm0-4v1a.506.506,0,0,1-.131.359.437.437,0,0,1-.335.14H15.384a.437.437,0,0,1-.335-.14.506.506,0,0,1-.131-.359v-1a.506.506,0,0,1,.131-.359A.437.437,0,0,1,15.384,8H25.639a.437.437,0,0,1,.335.14A.506.506,0,0,1,26.105,8.5Zm1.865,13V4H1.865V21.5A.5.5,0,0,0,2,21.852.434.434,0,0,0,2.331,22H27.5a.434.434,0,0,0,.328-.148.5.5,0,0,0,.138-.352Zm1.865-19v19a2.5,2.5,0,0,1-.685,1.765A2.171,2.171,0,0,1,27.5,24H2.331a2.171,2.171,0,0,1-1.646-.734A2.5,2.5,0,0,1,0,21.5V2.5A2.5,2.5,0,0,1,.685.734,2.172,2.172,0,0,1,2.331,0H27.5A2.171,2.171,0,0,1,29.15.734,2.5,2.5,0,0,1,29.834,2.5Z" fill="#c4c4c4"/>
</svg>
