<svg xmlns="http://www.w3.org/2000/svg" width="16" height="12" viewBox="0 0 16 12">
  <path id="Icon_awesome-eye" data-name="Icon awesome-eye" d="M15.9,10.044A8.877,8.877,0,0,0,8,4.5,8.879,8.879,0,0,0,.1,10.044a1.124,1.124,0,0,0,0,.912A8.877,8.877,0,0,0,8,16.5a8.879,8.879,0,0,0,7.9-5.544A1.124,1.124,0,0,0,15.9,10.044ZM8,15a4.272,4.272,0,0,1-4-4.5A4.272,4.272,0,0,1,8,6a4.272,4.272,0,0,1,4,4.5A4.27,4.27,0,0,1,8,15ZM8,7.5a2.377,2.377,0,0,0-.7.118,1.637,1.637,0,0,1-.131,1.944,1.222,1.222,0,0,1-1.728.147,3.186,3.186,0,0,0,1.085,3.27,2.425,2.425,0,0,0,3.1-.11,3.222,3.222,0,0,0,.9-3.34A2.7,2.7,0,0,0,8,7.5Z" transform="translate(0 -4.5)" fill="#0065ff"/>
</svg>
