<svg xmlns="http://www.w3.org/2000/svg" width="26" height="24.654" viewBox="0 0 26 24.654">
  <path id="Union_5" data-name="Union 5" d="M22.125,20.816a4.812,4.812,0,0,1-2.885,0l-2.973,3.838-.731-3.107,1.576-2.039a5.721,5.721,0,0,1-.944-6.635A5.066,5.066,0,0,1,22,10.243a5.437,5.437,0,0,1,3.866,5.316,5.611,5.611,0,0,1-1.609,3.949l1.576,2.039L25.1,24.654Zm-2.831-8.767a3.774,3.774,0,0,0-2.157,3.51h.008a3.64,3.64,0,0,0,3.542,3.708,3.556,3.556,0,0,0,3.285-2.333,3.921,3.921,0,0,0-.792-4.1,3.452,3.452,0,0,0-2.494-1.083A3.372,3.372,0,0,0,19.293,12.049ZM1.625,21.074A1.675,1.675,0,0,1,0,19.354V2.146A1.675,1.675,0,0,1,1.625.425H15.674s-.058,4.381,0,5.009L4.063,5.587V6.964H13.87a2.96,2.96,0,0,0,2.567,1.549h2.787a6.9,6.9,0,0,0-4.83,4.319,7.541,7.541,0,0,0,.638,6.66l-.756.981-.463.6Zm2.438-4.646h8.125V15.052H4.063Zm0-6.022H13V9.029H4.063ZM22.141,8.513H26v2.581A6.762,6.762,0,0,0,22.141,8.513Zm-2.423-1.5a.6.6,0,0,1-.622-.584V4.964H17.543a.6.6,0,0,1-.621-.584V2.628a.6.6,0,0,1,.621-.584H19.1V.584A.6.6,0,0,1,19.717,0H21.58A.6.6,0,0,1,22.2.584V1.842L19.717.584,22.2,1.842v.2h.4l1.153.584L22.6,2.044h1.153a.6.6,0,0,1,.621.584V4.38a.6.6,0,0,1-.621.584H22.2v1.46a.6.6,0,0,1-.622.584ZM22.6,2.044l-.4-.2Z" fill="#c4c4c4"/>
</svg>
