<svg xmlns="http://www.w3.org/2000/svg" width="24" height="20.572" viewBox="0 0 24 20.572">
  <path id="heartbeat" d="M17.143,12h4.085a1.281,1.281,0,0,1-.134.141q-.067.06-.121.1l-.04.053-8.344,8.036a.84.84,0,0,1-1.179,0L3.053,12.268A1.271,1.271,0,0,1,2.772,12H7.714a.845.845,0,0,0,.529-.181.8.8,0,0,0,.3-.462l.937-3.763,2.545,8.933a.855.855,0,0,0,.308.442.836.836,0,0,0,.522.174.816.816,0,0,0,.509-.174.855.855,0,0,0,.308-.442l1.955-6.5.75,1.5a.8.8,0,0,0,.763.469ZM24,6.268a7.282,7.282,0,0,1-1.379,4.018H17.679l-1.487-2.96a.847.847,0,0,0-.83-.469.794.794,0,0,0-.75.616l-1.728,5.759L10.259,4.045A.843.843,0,0,0,9.944,3.6a.864.864,0,0,0-.529-.174.837.837,0,0,0-.817.643L7.045,10.286H1.379A7.282,7.282,0,0,1,0,6.268,6.143,6.143,0,0,1,1.7,1.661,6.442,6.442,0,0,1,6.4,0,5.334,5.334,0,0,1,8.1.288,6.879,6.879,0,0,1,9.7,1.065q.744.489,1.279.917A12.62,12.62,0,0,1,12,2.893a12.323,12.323,0,0,1,1.018-.911q.536-.429,1.279-.917A6.862,6.862,0,0,1,15.9.288,5.336,5.336,0,0,1,17.6,0a6.442,6.442,0,0,1,4.7,1.661A6.143,6.143,0,0,1,24,6.268Z" fill="#868d9a"/>
</svg>
