<svg xmlns="http://www.w3.org/2000/svg" width="22.155" height="23.564" viewBox="0 0 22.155 23.564">
  <path id="Union_22" data-name="Union 22" d="M12.318,23.564v-2.69l-1-1.751v1.6a.317.317,0,0,1-.328.306H6.418a.317.317,0,0,1-.327-.306V17.665a.318.318,0,0,1,.327-.306H7.711v-.229a.4.4,0,0,1,.409-.382h.187V15.026a.774.774,0,0,1,.528-.723l2.595-.9,2.026.661,1.049,1.812h1.558V16.9H14.348a.81.81,0,0,1-.7-.4L13,15.39l-.967,2.843L13.29,20.44a.739.739,0,0,1,.1.368v2.756Zm-4.553-4.6v.519a.079.079,0,0,0,.082.076h.571V20.1a.079.079,0,0,0,.082.077h.555a.079.079,0,0,0,.082-.077v-.535H9.71a.079.079,0,0,0,.082-.076V19.1l-.013,0,.013-.045v-.086a.079.079,0,0,0-.082-.076H9.138v-.535a.078.078,0,0,0-.082-.076H8.5a.079.079,0,0,0-.082.076v.535H7.847A.079.079,0,0,0,7.765,18.965Zm1.612-3.759v1.558a.387.387,0,0,1,.3.367v.229h.586l.751-2.723ZM8.038,17.131v.229H9.346v-.229a.079.079,0,0,0-.082-.076H8.12A.079.079,0,0,0,8.038,17.131ZM4.431,22.155A2.219,2.219,0,0,1,2.216,19.94V12.186H1.108A1.108,1.108,0,0,1,.325,10.3L10.294.325a1.106,1.106,0,0,1,1.566,0L21.83,10.3a1.108,1.108,0,0,1-.782,1.891H19.94V19.94a2.218,2.218,0,0,1-2.216,2.215V9.321L11.078,2.675,4.432,9.321V22.154h0Zm7.481-10.063a1.141,1.141,0,1,1,1.139,1.093A1.117,1.117,0,0,1,11.911,12.092Z" transform="translate(0)" fill="#868d9a"/>
</svg>
