<svg xmlns="http://www.w3.org/2000/svg" width="24" height="24.566" viewBox="0 0 24 24.566">
  <path id="home" d="M23.544,13.336a1.485,1.485,0,0,1-1.1.467,1.466,1.466,0,0,1-1.09-.455L21,12.989V23.03a1.51,1.51,0,0,1-.434,1.078,1.415,1.415,0,0,1-1.066.455H15v-6.9a.744.744,0,0,0-.223-.539.716.716,0,0,0-.527-.228H9.75a.712.712,0,0,0-.527.228A.749.749,0,0,0,9,17.662v6.9H4.5a1.415,1.415,0,0,1-1.066-.455A1.508,1.508,0,0,1,3,23.03V12.989l-.352.36a1.466,1.466,0,0,1-1.09.455,1.485,1.485,0,0,1-1.1-.467A1.553,1.553,0,0,1,0,12.209,1.533,1.533,0,0,1,.445,11.1L10.852.455A1.467,1.467,0,0,1,12,0a1.467,1.467,0,0,1,1.148.455L23.555,11.1A1.533,1.533,0,0,1,24,12.209a1.553,1.553,0,0,1-.457,1.127Z" transform="translate(0 0.002)" fill="#8d8d8d"/>
</svg>
