<svg xmlns="http://www.w3.org/2000/svg" width="22.155" height="24" viewBox="0 0 22.155 24">
  <path id="Union_17" data-name="Union 17" d="M16.062,24H6.093V21.429a3.641,3.641,0,0,1,1.023-2.544,3.419,3.419,0,0,1,2.466-1.055h2.991a3.417,3.417,0,0,1,2.466,1.055,3.641,3.641,0,0,1,1.024,2.544V24ZM9.679,21.419H10.8v1.175h.559V21.419h1.119v-.587H11.357V19.657H10.8v1.174H9.679Zm-5.248.736a2.219,2.219,0,0,1-2.215-2.216V12.186H1.109a1.107,1.107,0,0,1-.784-1.891L10.294.325a1.106,1.106,0,0,1,1.567,0l9.969,9.97a1.107,1.107,0,0,1-.782,1.891H19.94v7.753a2.218,2.218,0,0,1-2.215,2.215V9.321L11.078,2.674,4.432,9.321V22.154h0ZM7.589,13.2a3.546,3.546,0,0,1,3.489-3.6,3.6,3.6,0,0,1,0,7.2A3.546,3.546,0,0,1,7.589,13.2Z" transform="translate(0)" fill="#868d9a"/>
</svg>
