<svg xmlns="http://www.w3.org/2000/svg" width="24" height="20.903" viewBox="0 0 24 20.903">
  <path id="Union_14" data-name="Union 14" d="M-2239.585-635.722v-3.1a2.278,2.278,0,0,0-.668-1.655,2.278,2.278,0,0,0-1.655-.668h-3.1a2.277,2.277,0,0,0-1.655.668,2.28,2.28,0,0,0-.668,1.655v3.1h-1.548v-3.1a3.836,3.836,0,0,1,1.122-2.749,3.83,3.83,0,0,1,2.749-1.122h3.1a3.831,3.831,0,0,1,2.749,1.122,3.835,3.835,0,0,1,1.122,2.749v3.1Zm-7.742-12.387a3.871,3.871,0,0,1,3.871-3.871,3.871,3.871,0,0,1,3.871,3.871,3.871,3.871,0,0,1-3.871,3.871A3.871,3.871,0,0,1-2247.327-648.109Zm1.548,0a2.323,2.323,0,0,0,2.323,2.323,2.323,2.323,0,0,0,2.323-2.323,2.323,2.323,0,0,0-2.323-2.323A2.323,2.323,0,0,0-2245.778-648.109Zm9.29,3.1a.774.774,0,0,1-.774-.774V-655.85a.774.774,0,0,1,.774-.774h10.839a.774.774,0,0,1,.774.774v10.064a.775.775,0,0,1-.774.774Zm2.323-3.1h2.323v1.548h1.549v-1.548h2.323v-1.548h-2.323v-2.323h2.323v-1.548h-2.323v-1.548h-1.549v1.548h-2.323v1.548h2.323v2.323h-2.323Z" transform="translate(2248.875 656.625)" fill="#868d9a"/>
</svg>
