<svg xmlns="http://www.w3.org/2000/svg" width="16" height="12" viewBox="0 0 16 12">
  <path id="Union_3" data-name="Union 3" d="M3.431,12a1.564,1.564,0,0,1-1.362-.882h0L.117,6.348A1.819,1.819,0,0,1,0,5.706,1.528,1.528,0,0,1,.983,4.26l0,0a20.658,20.658,0,0,1,2.061-.605v-1.8A1.52,1.52,0,0,1,4.263.344,20.827,20.827,0,0,1,8,0a21.04,21.04,0,0,1,3.734.337A1.519,1.519,0,0,1,12.95,1.85v1.8a20.872,20.872,0,0,1,2.059.6h0A1.512,1.512,0,0,1,16,5.7a1.586,1.586,0,0,1-.118.6v0l-1.951,4.721h0a1.47,1.47,0,0,1-1.371.931,1.514,1.514,0,0,1-.454-.068H12.1a13.386,13.386,0,0,0-8.2.009l-.009.015A1.569,1.569,0,0,1,3.44,12Zm9.129-1.07a.478.478,0,0,0,.458-.3l0-.007L14.97,5.9l.04-.2a.494.494,0,0,0-.314-.473h0a20.183,20.183,0,0,0-4.254-.991.507.507,0,0,1-.434-.567.5.5,0,0,1,.549-.448c.47.057.939.135,1.406.224V1.85a.508.508,0,0,0-.4-.507,19.684,19.684,0,0,0-7.128.008.507.507,0,0,0-.4.507V3.443c.471-.089.943-.169,1.419-.226a.5.5,0,0,1,.549.448.508.508,0,0,1-.434.567,20,20,0,0,0-4.262.992.509.509,0,0,0-.32.482l.038.194,1.951,4.721,0,.008a.477.477,0,0,0,.458.3l.17-.026h0a14.369,14.369,0,0,1,8.781,0h0ZM7.01,9.294V7.25H5.029V5.206H7.01V3.163H8.99V5.206H10.97V7.25H8.99V9.294Z" fill="#868d9a"/>
</svg>
