<svg xmlns="http://www.w3.org/2000/svg" width="24" height="25" viewBox="0 0 24 25">
  <path id="Union_4" data-name="Union 4" d="M19.433,25V22.039H16.389v-1.48h3.044V17.6h1.522v2.961H24v1.48H20.956V25Zm-3.875-1.316H1.522a1.514,1.514,0,0,1-1.07-.427A1.4,1.4,0,0,1,0,22.2V1.48A1.41,1.41,0,0,1,.452.439,1.491,1.491,0,0,1,1.522,0H19.788a1.479,1.479,0,0,1,1.083.439,1.425,1.425,0,0,1,.44,1.041V15.908a5.324,5.324,0,0,0-1.126-.118,5.126,5.126,0,0,0-2.64.716,5.272,5.272,0,0,0-1.452,1.258H14.461a.745.745,0,0,0-.535.22.713.713,0,0,0,0,1.041.745.745,0,0,0,.535.22h.794a5.4,5.4,0,0,0-.33,1.883,5.33,5.33,0,0,0,.634,2.556h0Zm-6.2-5.7a.713.713,0,0,0,0,1.041.745.745,0,0,0,.535.22h1.522a.747.747,0,0,0,.535-.22.713.713,0,0,0,0-1.041.747.747,0,0,0-.535-.22H9.894A.747.747,0,0,0,9.359,17.983Zm-6.089,0a.713.713,0,0,0,0,1.041.747.747,0,0,0,.535.22H6.85a.747.747,0,0,0,.535-.22.713.713,0,0,0,0-1.041.747.747,0,0,0-.535-.22H3.805A.747.747,0,0,0,3.27,17.983Zm10.655-4.441a.713.713,0,0,0,0,1.041.745.745,0,0,0,.535.22h3.044a.747.747,0,0,0,.535-.22.713.713,0,0,0,0-1.041.747.747,0,0,0-.535-.22H14.461A.745.745,0,0,0,13.926,13.542Zm-10.655,0a.713.713,0,0,0,0,1.041.747.747,0,0,0,.535.22h7.611a.747.747,0,0,0,.535-.22.713.713,0,0,0,0-1.041.747.747,0,0,0-.535-.22H3.805A.747.747,0,0,0,3.27,13.542ZM9.359,9.1a.713.713,0,0,0,0,1.041.745.745,0,0,0,.535.22h7.611a.747.747,0,0,0,.535-.22.713.713,0,0,0,0-1.041.747.747,0,0,0-.535-.22H9.894A.747.747,0,0,0,9.359,9.1ZM3.27,9.1a.713.713,0,0,0,0,1.041.747.747,0,0,0,.535.22H6.85a.747.747,0,0,0,.535-.22.713.713,0,0,0,0-1.041.747.747,0,0,0-.535-.22H3.805A.747.747,0,0,0,3.27,9.1ZM12.4,4.66a.713.713,0,0,0,0,1.041.745.745,0,0,0,.535.22h4.567a.747.747,0,0,0,.535-.22.713.713,0,0,0,0-1.041.747.747,0,0,0-.535-.22H12.939A.745.745,0,0,0,12.4,4.66Zm-9.133,0a.713.713,0,0,0,0,1.041.747.747,0,0,0,.535.22H9.894a.747.747,0,0,0,.535-.22.713.713,0,0,0,0-1.041.747.747,0,0,0-.535-.22H3.805A.747.747,0,0,0,3.27,4.66Z" fill="#c4c4c4"/>
</svg>
