<svg xmlns="http://www.w3.org/2000/svg" width="32.186" height="32.186" viewBox="0 0 32.186 32.186">
  <g id="Group_6437" data-name="Group 6437" transform="translate(0.083 0.083)">
    <path id="Path_16647" data-name="Path 16647" d="M0,0H32V32H0Z" fill="none"/>
    <path id="Path_16649" data-name="Path 16649" d="M0,10,8,0" transform="translate(12 11)" fill="none" stroke="#fff" stroke-linecap="round" stroke-width="3"/>
    <circle id="Ellipse_44" data-name="Ellipse 44" cx="1.5" cy="1.5" r="1.5" transform="translate(18.87 17.87)" fill="#fff" stroke="#fff" stroke-linecap="round" stroke-linejoin="round" stroke-width="1"/>
    <path id="Path_16648" data-name="Path 16648" d="M5.884,9.062A3.178,3.178,0,0,1,9.062,5.884h1.445a3.178,3.178,0,0,0,2.239-.924l1.011-1.011a3.178,3.178,0,0,1,4.507,0L19.275,4.96a3.178,3.178,0,0,0,2.239.924h1.445a3.178,3.178,0,0,1,3.178,3.178v1.445a3.178,3.178,0,0,0,.924,2.239l1.011,1.011a3.178,3.178,0,0,1,0,4.507L27.06,19.275a3.178,3.178,0,0,0-.924,2.239v1.445a3.178,3.178,0,0,1-3.178,3.178H21.514a3.178,3.178,0,0,0-2.239.924l-1.011,1.011a3.178,3.178,0,0,1-4.507,0L12.745,27.06a3.178,3.178,0,0,0-2.239-.924H9.062a3.178,3.178,0,0,1-3.178-3.178V21.514a3.178,3.178,0,0,0-.924-2.239L3.948,18.263a3.178,3.178,0,0,1,0-4.507L4.96,12.745a3.178,3.178,0,0,0,.924-2.239V9.062" transform="translate(-2.072 2.384) rotate(-8)" fill="none" stroke="#fff" stroke-linecap="round" stroke-linejoin="round" stroke-width="2.5"/>
    <circle id="Ellipse_45" data-name="Ellipse 45" cx="1.5" cy="1.5" r="1.5" transform="translate(10.5 10.63)" fill="#fff" stroke="#fff" stroke-linecap="round" stroke-linejoin="round" stroke-width="1"/>
  </g>
</svg>
