<svg xmlns="http://www.w3.org/2000/svg" width="24" height="23.064" viewBox="0 0 24 23.064">
  <path id="Union_11" data-name="Union 11" d="M17.283,21.3a1.764,1.764,0,1,1,1.763,1.764A1.763,1.763,0,0,1,17.283,21.3Zm-10.715,0a1.764,1.764,0,1,1,1.764,1.764A1.763,1.763,0,0,1,6.568,21.3Zm-1.05-3.723A2.086,2.086,0,0,1,5.58,14.92l.1-.1,1.286-1.05L3.37,2.4.556,1.54A.787.787,0,0,1,1.018.035l3.214.988a.782.782,0,0,1,.517.509L8.332,12.874H20.089l2.093-9.405H7.4L6.89,1.9H23.208a.806.806,0,0,1,.776.956L21.5,13.83a.784.784,0,0,1-.784.611H8.614L6.725,16.009a.525.525,0,0,0,.439.784H20.371a.784.784,0,0,1,0,1.567H7.289l-.107,0A2.155,2.155,0,0,1,5.518,17.577Z" transform="translate(0)" fill="#fff"/>
</svg>
